<?xml version="1.0" encoding="UTF-8" standalone="no"?>
<!DOCTYPE svg PUBLIC "-//W3C//DTD SVG 1.1//EN" "http://www.w3.org/Graphics/SVG/1.1/DTD/svg11.dtd">
<!-- Created with Vectornator (http://vectornator.io/) -->
<svg height="100%" stroke-miterlimit="10" style="fill-rule:nonzero;clip-rule:evenodd;stroke-linecap:round;stroke-linejoin:round;" version="1.1" viewBox="0 0 1024 320" width="100%" xml:space="preserve" xmlns="http://www.w3.org/2000/svg" xmlns:vectornator="http://vectornator.io" xmlns:xlink="http://www.w3.org/1999/xlink">
<defs>
<linearGradient gradientTransform="matrix(1.84272 0 0 -1.84272 -2540.39 4574.47)" gradientUnits="userSpaceOnUse" id="LinearGradient" x1="1451.48" x2="1451.48" y1="2452.51" y2="2339.21">
<stop offset="0" stop-color="#257cb0"/>
<stop offset="0.286" stop-color="#4a93b5"/>
<stop offset="0.767" stop-color="#78bcbb"/>
<stop offset="1" stop-color="#89cfbd"/>
</linearGradient>
<linearGradient gradientTransform="matrix(1.84272 0 0 -1.84272 -2540.39 4574.47)" gradientUnits="userSpaceOnUse" id="LinearGradient_2" x1="1422.91" x2="1495.39" y1="2424.39" y2="2424.39">
<stop offset="0" stop-color="#52c1ad"/>
<stop offset="1" stop-color="#dee89a"/>
</linearGradient>
<linearGradient gradientTransform="matrix(1.84272 0 0 -1.84272 -2540.39 4574.47)" gradientUnits="userSpaceOnUse" id="LinearGradient_3" x1="1459.15" x2="1459.15" y1="2395.86" y2="2338.8">
<stop offset="0" stop-color="#ec413d"/>
<stop offset="0.167" stop-color="#da4452"/>
<stop offset="0.575" stop-color="#b0487a"/>
<stop offset="0.862" stop-color="#954a92"/>
<stop offset="1" stop-color="#8a4a9d"/>
</linearGradient>
<linearGradient gradientTransform="matrix(1.84272 0 0 -1.84272 -2540.39 4574.47)" gradientUnits="userSpaceOnUse" id="LinearGradient_4" x1="1500.9" x2="1500.9" y1="2411.08" y2="2380.65">
<stop offset="0" stop-color="#f58879"/>
<stop offset="0.119" stop-color="#f69079"/>
<stop offset="0.713" stop-color="#fcb877"/>
<stop offset="1" stop-color="#fec874"/>
</linearGradient>
</defs>
<g id="banners" vectornator:layerName="banners">
<g opacity="1" vectornator:layerName="google-play-badge-logo-svgrepo-com.svg">
<path d="M361.915 86.824C361.915 92.7976 360.421 98.0244 356.688 101.758C352.208 106.238 346.981 108.478 340.26 108.478C333.54 108.478 328.313 106.238 323.833 101.758C319.353 97.2777 317.113 92.0509 317.113 85.3306C317.113 78.6104 319.353 73.3835 323.833 68.9034C328.313 64.4232 333.54 62.1831 340.26 62.1831C343.247 62.1831 346.234 62.9298 349.221 64.4232C352.208 65.9166 354.448 67.41 355.941 69.6501L352.208 73.3835C349.221 69.6501 345.487 68.1567 340.26 68.1567C335.78 68.1567 331.3 69.6501 328.313 73.3835C324.58 76.3703 323.087 80.8505 323.087 86.0773C323.087 91.3042 324.58 95.7844 328.313 98.7711C332.047 101.758 335.78 103.998 340.26 103.998C345.487 103.998 349.221 102.505 352.954 98.7711C355.194 96.531 356.688 93.5443 356.688 89.8108L340.26 89.8108L340.26 83.8373L361.915 83.8373C361.915 83.8373 361.915 86.824 361.915 86.824ZM396.263 68.1567L376.102 68.1567L376.102 82.3439L394.769 82.3439L394.769 87.5707L376.102 87.5707L376.102 101.758L396.263 101.758L396.263 107.731L370.128 107.731L370.128 62.9298L396.263 62.9298L396.263 68.1567ZM420.903 107.731L414.93 107.731L414.93 68.1567L402.236 68.1567L402.236 62.9298L433.597 62.9298L433.597 68.1567L420.903 68.1567L420.903 107.731ZM455.251 107.731L455.251 62.9298L461.225 62.9298L461.225 107.731L455.251 107.731ZM486.612 107.731L480.639 107.731L480.639 68.1567L467.945 68.1567L467.945 62.9298L498.56 62.9298L498.56 68.1567L485.866 68.1567L485.866 107.731L486.612 107.731ZM557.548 101.758C553.068 106.238 547.841 108.478 541.121 108.478C534.401 108.478 529.174 106.238 524.694 101.758C520.214 97.2777 517.974 92.0509 517.974 85.3306C517.974 78.6104 520.214 73.3835 524.694 68.9034C529.174 64.4232 534.401 62.1831 541.121 62.1831C547.841 62.1831 553.068 64.4232 557.548 68.9034C562.028 73.3835 564.269 78.6104 564.269 85.3306C564.269 92.0509 562.028 97.2777 557.548 101.758ZM529.174 98.0244C532.161 101.011 536.641 103.251 541.121 103.251C545.601 103.251 550.081 101.758 553.068 98.0244C556.055 95.0377 558.295 90.5575 558.295 85.3306C558.295 80.1038 556.802 75.6236 553.068 72.6369C550.081 69.6501 545.601 67.41 541.121 67.41C536.641 67.41 532.161 68.9034 529.174 72.6369C526.187 75.6236 523.947 80.1038 523.947 85.3306C523.947 90.5575 525.44 95.0377 529.174 98.0244ZM572.482 107.731L572.482 62.9298L579.202 62.9298L600.857 98.0244L600.857 62.9298L606.83 62.9298L606.83 107.731L600.857 107.731L577.709 71.1435L577.709 107.731C577.709 107.731 572.482 107.731 572.482 107.731Z" fill="#3a3a3a" fill-rule="nonzero" opacity="1" stroke="none" vectornator:layerName="path"/>
<path d="M516.48 173.44C498.56 173.44 484.372 186.881 484.372 205.548C484.372 223.469 498.56 237.656 516.48 237.656C534.401 237.656 548.588 224.216 548.588 205.548C548.588 186.134 534.401 173.44 516.48 173.44ZM516.48 224.216C506.773 224.216 498.56 216.002 498.56 204.802C498.56 193.601 506.773 185.388 516.48 185.388C526.187 185.388 534.401 192.855 534.401 204.802C534.401 216.002 526.187 224.216 516.48 224.216ZM447.038 173.44C429.117 173.44 414.93 186.881 414.93 205.548C414.93 223.469 429.117 237.656 447.038 237.656C464.958 237.656 479.145 224.216 479.145 205.548C479.145 186.134 464.958 173.44 447.038 173.44ZM447.038 224.216C437.331 224.216 429.117 216.002 429.117 204.802C429.117 193.601 437.331 185.388 447.038 185.388C456.745 185.388 464.958 192.855 464.958 204.802C464.958 216.002 456.745 224.216 447.038 224.216ZM364.155 183.147L364.155 196.588L396.263 196.588C395.516 204.055 392.529 210.028 388.796 213.762C384.315 218.242 376.848 223.469 364.155 223.469C343.994 223.469 329.06 207.788 329.06 187.628C329.06 167.467 344.741 151.786 364.155 151.786C374.608 151.786 382.822 156.267 388.796 161.493L398.503 151.786C390.289 144.319 379.835 138.346 364.901 138.346C338.02 138.346 314.873 160.747 314.873 187.628C314.873 214.509 338.02 236.909 364.901 236.909C379.835 236.909 390.289 232.429 399.249 222.722C408.21 213.762 411.196 201.068 411.196 191.361C411.196 188.374 411.196 185.388 410.45 183.147L364.155 183.147ZM703.154 193.601C700.167 186.134 692.7 173.44 676.273 173.44C659.845 173.44 646.405 186.134 646.405 205.548C646.405 223.469 659.845 237.656 677.766 237.656C691.953 237.656 700.913 228.696 703.9 223.469L693.447 216.002C689.713 221.229 685.233 224.962 677.766 224.962C670.299 224.962 665.819 221.976 662.085 215.255L704.647 197.335C704.647 197.335 703.154 193.601 703.154 193.601ZM659.845 204.055C659.845 192.108 669.552 185.388 676.273 185.388C681.499 185.388 686.726 188.374 688.22 192.108L659.845 204.055ZM624.751 234.669L638.938 234.669L638.938 141.333L624.751 141.333L624.751 234.669ZM602.35 180.161C598.616 176.427 592.643 172.694 585.176 172.694C569.495 172.694 554.562 186.881 554.562 204.802C554.562 222.722 568.749 236.163 585.176 236.163C592.643 236.163 598.616 232.429 601.603 228.696L602.35 228.696L602.35 233.176C602.35 245.123 595.63 251.843 585.176 251.843C576.962 251.843 570.989 245.87 569.495 240.643L557.548 245.87C561.282 254.083 570.242 264.537 585.923 264.537C602.35 264.537 615.79 254.83 615.79 231.683L615.79 174.934L602.35 174.934L602.35 180.161ZM585.923 224.216C576.216 224.216 568.002 216.002 568.002 204.802C568.002 193.601 576.216 185.388 585.923 185.388C595.63 185.388 603.097 193.601 603.097 204.802C603.097 216.002 595.63 224.216 585.923 224.216ZM768.116 141.333L734.515 141.333L734.515 234.669L748.702 234.669L748.702 199.575L768.116 199.575C783.796 199.575 798.73 188.374 798.73 170.454C798.73 152.533 783.796 141.333 768.116 141.333ZM768.863 186.134L748.702 186.134L748.702 154.026L768.863 154.026C779.316 154.026 785.29 162.987 785.29 169.707C784.543 177.921 778.57 186.134 768.863 186.134ZM854.732 172.694C844.279 172.694 833.825 177.174 830.091 186.881L842.785 192.108C845.772 186.881 850.252 185.388 855.479 185.388C862.946 185.388 869.666 189.868 870.413 197.335L870.413 198.081C868.173 196.588 862.199 194.348 856.226 194.348C842.785 194.348 829.345 201.815 829.345 215.255C829.345 227.949 840.545 236.163 852.492 236.163C862.199 236.163 866.679 231.683 870.413 227.202L871.16 227.202L871.16 234.669L884.6 234.669L884.6 198.828C883.107 182.401 870.413 172.694 854.732 172.694ZM853.239 224.216C848.759 224.216 842.039 221.976 842.039 216.002C842.039 208.535 850.252 206.295 856.972 206.295C862.946 206.295 865.933 207.788 869.666 209.282C868.173 218.242 860.706 224.216 853.239 224.216ZM931.642 174.934L915.961 215.255L915.215 215.255L898.787 174.934L883.853 174.934L908.494 231.683L894.307 263.044L908.494 263.044L946.576 174.934L931.642 174.934ZM806.197 234.669L820.384 234.669L820.384 141.333L806.197 141.333L806.197 234.669Z" fill="#3a3a3a" fill-rule="nonzero" opacity="1" stroke="none" vectornator:layerName="path"/>
<g opacity="1" vectornator:layerName="google-logo">
<g opacity="1" vectornator:layerName="path">
<clipPath clip-rule="nonzero" id="ClipPath">
<path d="M215.192 131.532L172.693 106.996C172.693 106.996 95.2696 62.29 90.7179 59.6623C86.1664 57.0346 81.6315 58.6267 81.6315 64.118L81.6315 256.961C81.6315 261.077 84.8727 262.852 88.8271 260.57C92.7798 258.285 172.693 212.146 172.693 212.146L215.19 187.611C215.19 187.611 251.248 166.794 256.041 164.028C260.834 161.259 260.373 157.463 256.329 155.285C252.286 153.105 215.192 131.532 215.192 131.532Z"/>
</clipPath>
<g clip-path="url(#ClipPath)">
<path d="M81.6333 55.179L81.6333 263.965L186.915 159.573L81.6333 55.179Z" fill="url(#LinearGradient)" fill-rule="nonzero" opacity="1" stroke="none" vectornator:layerName="path"/>
</g>
</g>
<g opacity="1" vectornator:layerName="path 1">
<clipPath clip-rule="nonzero" id="ClipPath_2">
<path d="M215.192 131.532L172.693 106.996C172.693 106.996 95.2696 62.29 90.7179 59.6623C86.1664 57.0346 81.6315 58.6267 81.6315 64.118L81.6315 256.961C81.6315 261.077 84.8727 262.852 88.8271 260.57C92.7798 258.285 172.693 212.146 172.693 212.146L215.19 187.611C215.19 187.611 251.248 166.794 256.041 164.028C260.834 161.259 260.373 157.463 256.329 155.285C252.286 153.105 215.192 131.532 215.192 131.532Z"/>
</clipPath>
<g clip-path="url(#ClipPath_2)">
<path d="M215.192 131.532L172.693 106.996L81.6333 54.4198L81.6333 55.179L186.915 159.573L215.192 131.532Z" fill="url(#LinearGradient_2)" fill-rule="nonzero" opacity="1" stroke="none" vectornator:layerName="path"/>
</g>
</g>
<g opacity="1" vectornator:layerName="path 2">
<clipPath clip-rule="nonzero" id="ClipPath_3">
<path d="M215.192 131.532L172.693 106.996C172.693 106.996 95.2696 62.29 90.7179 59.6623C86.1664 57.0346 81.6315 58.6267 81.6315 64.118L81.6315 256.961C81.6315 261.077 84.8727 262.852 88.8271 260.57C92.7798 258.285 172.693 212.146 172.693 212.146L215.19 187.611C215.19 187.611 251.248 166.794 256.041 164.028C260.834 161.259 260.373 157.463 256.329 155.285C252.286 153.105 215.192 131.532 215.192 131.532Z"/>
</clipPath>
<g clip-path="url(#ClipPath_3)">
<path d="M81.6333 263.965L81.6333 264.724L172.693 212.145L215.19 187.61L186.915 159.573L81.6333 263.965Z" fill="url(#LinearGradient_3)" fill-rule="nonzero" opacity="1" stroke="none" vectornator:layerName="path"/>
</g>
</g>
<g opacity="1" vectornator:layerName="path 3">
<clipPath clip-rule="nonzero" id="ClipPath_4">
<path d="M215.192 131.532L172.693 106.996C172.693 106.996 95.2696 62.29 90.7179 59.6623C86.1664 57.0346 81.6315 58.6267 81.6315 64.118L81.6315 256.961C81.6315 261.077 84.8727 262.852 88.8271 260.57C92.7798 258.285 172.693 212.146 172.693 212.146L215.19 187.611C215.19 187.611 251.248 166.794 256.041 164.028C260.834 161.259 260.373 157.463 256.329 155.285C252.286 153.105 215.192 131.532 215.192 131.532Z"/>
</clipPath>
<g clip-path="url(#ClipPath_4)">
<path d="M215.192 131.532L186.915 159.573L215.19 187.61L263.758 159.571L215.192 131.532Z" fill="url(#LinearGradient_4)" fill-rule="nonzero" opacity="1" stroke="none" vectornator:layerName="path"/>
</g>
</g>
</g>
<path d="M7.98186 61.4838C7.98186 33.4153 30.7359 10.6613 58.8044 10.6613L965.196 10.6613C993.264 10.6613 1016.02 33.4153 1016.02 61.4838L1016.02 258.516C1016.02 286.585 993.264 309.339 965.196 309.339L58.8044 309.339C30.7359 309.339 7.98186 286.585 7.98186 258.516L7.98186 61.4838Z" fill="none" opacity="1" stroke="#3a3a3a" stroke-linecap="butt" stroke-linejoin="round" stroke-width="10" vectornator:layerName="border"/>
</g>
</g>
</svg>
