<?xml version="1.0" encoding="UTF-8" standalone="no"?>
<!DOCTYPE svg PUBLIC "-//W3C//DTD SVG 1.1//EN" "http://www.w3.org/Graphics/SVG/1.1/DTD/svg11.dtd">
<!-- Created with Vectornator (http://vectornator.io/) -->
<svg height="100%" stroke-miterlimit="10" style="fill-rule:nonzero;clip-rule:evenodd;stroke-linecap:round;stroke-linejoin:round;" version="1.1" viewBox="0 0 1024 320" width="100%" xml:space="preserve" xmlns="http://www.w3.org/2000/svg" xmlns:vectornator="http://vectornator.io" xmlns:xlink="http://www.w3.org/1999/xlink">
<defs/>
<g id="banners" vectornator:layerName="banners">
<g opacity="1" vectornator:layerName="ios-banner">
<path d="M232.002 164.576C231.785 140.405 251.793 128.646 252.708 128.099C241.376 111.577 223.813 109.32 217.641 109.14C202.89 107.588 188.581 117.967 181.066 117.967C173.402 117.967 161.83 109.29 149.358 109.545C133.309 109.792 118.296 119.084 110.061 133.513C93.0676 162.934 105.741 206.169 122.023 229.949C130.167 241.604 139.684 254.6 152.141 254.143C164.327 253.648 168.879 246.381 183.586 246.381C198.157 246.381 202.432 254.143 215.136 253.85C228.215 253.648 236.449 242.151 244.309 230.399C253.721 217.058 257.5 203.904 257.651 203.229C257.35 203.124 232.257 193.539 232.002 164.576ZM208.004 93.4961C214.558 85.2991 219.043 74.1474 217.798 62.8306C208.311 63.2506 196.447 69.3927 189.614 77.4096C183.57 84.4742 178.17 96.0534 179.565 106.943C190.222 107.738 201.164 101.566 208.004 93.4961Z" fill="#3a3a3a" fill-rule="nonzero" opacity="1" stroke="none" vectornator:layerName="apple_logo"/>
<path d="M408.518 252.47L391.486 252.47L382.157 223.155L349.729 223.155L340.842 252.47L324.261 252.47L356.396 152.667L376.24 152.667L408.518 252.47ZM379.345 210.856L370.908 184.795C370.016 182.133 368.336 175.863 365.876 165.994L365.576 165.994C364.586 170.238 363.004 176.508 360.837 184.795L352.542 210.856L379.345 210.856ZM490.998 215.603C490.998 227.842 487.676 237.516 481.023 244.619C475.069 250.941 467.667 254.098 458.839 254.098C449.308 254.098 442.453 250.701 438.291 243.892L438.291 281.652L422.302 281.652L422.302 204.159C422.302 196.471 422.1 188.59 421.71 180.505L435.772 180.505L436.664 191.912L436.963 191.912C442.296 183.318 450.388 179.02 461.247 179.02C469.736 179.02 476.823 182.372 482.493 189.084C488.155 195.812 490.998 204.646 490.998 215.603ZM474.708 216.188C474.708 209.183 473.134 203.409 469.969 198.857C466.511 194.124 461.869 191.755 456.05 191.755C452.105 191.755 448.52 193.074 445.318 195.677C442.108 198.302 440.008 201.729 439.026 205.974C438.531 207.953 438.284 209.566 438.284 210.841L438.284 222.847C438.284 228.075 439.889 232.492 443.099 236.107C446.308 239.707 450.478 241.514 455.608 241.514C461.631 241.514 466.318 239.182 469.669 234.554C473.029 229.912 474.708 223.792 474.708 216.188ZM573.769 215.603C573.769 227.842 570.447 237.516 563.795 244.619C557.833 250.941 550.438 254.098 541.604 254.098C532.072 254.098 525.218 250.701 521.055 243.892L521.055 281.652L505.066 281.652L505.066 204.159C505.066 196.471 504.864 188.59 504.474 180.505L518.536 180.505L519.428 191.912L519.728 191.912C525.053 183.318 533.145 179.02 544.011 179.02C552.493 179.02 559.58 182.372 565.265 189.084C570.92 195.812 573.769 204.646 573.769 215.603ZM557.473 216.188C557.473 209.183 555.891 203.409 552.726 198.857C549.268 194.124 544.641 191.755 538.822 191.755C534.877 191.755 531.292 193.074 528.075 195.677C524.865 198.302 522.773 201.729 521.79 205.974C521.303 207.953 521.04 209.566 521.04 210.841L521.04 222.847C521.04 228.075 522.653 232.492 525.848 236.107C529.057 239.699 533.227 241.514 538.372 241.514C544.401 241.514 549.088 239.182 552.433 234.554C555.793 229.912 557.473 223.792 557.473 216.188ZM666.313 224.475C666.313 232.972 663.343 239.879 657.442 245.211C650.947 251.031 641.88 253.948 630.256 253.948C619.516 253.948 610.907 251.878 604.412 247.731L608.11 234.404C615.122 238.559 622.824 240.629 631.208 240.629C637.238 240.629 641.925 239.264 645.27 236.557C648.621 233.842 650.317 230.212 650.317 225.682C650.317 221.626 648.914 218.228 646.162 215.461C643.395 212.701 638.82 210.129 632.394 207.767C614.919 201.25 606.175 191.718 606.175 179.178C606.175 170.989 609.264 164.284 615.43 159.042C621.594 153.808 629.769 151.191 639.938 151.191C649.02 151.191 656.587 152.773 662.594 155.931L658.582 168.964C652.927 165.904 646.544 164.374 639.405 164.374C633.766 164.374 629.341 165.762 626.176 168.522C623.514 170.989 622.164 173.997 622.164 177.566C622.164 181.504 623.702 184.774 626.761 187.339C629.416 189.7 634.26 192.273 641.265 195.033C649.859 198.498 656.173 202.533 660.216 207.167C664.288 211.801 666.313 217.583 666.313 224.475ZM719.313 192.504L701.688 192.504L701.688 227.445C701.688 236.332 704.794 240.764 711.018 240.764C713.875 240.764 716.245 240.523 718.12 240.021L718.562 252.163C715.413 253.341 711.265 253.933 706.128 253.933C699.813 253.933 694.879 252.006 691.316 248.151C687.769 244.296 685.985 237.839 685.985 228.75L685.985 192.474L675.485 192.474L675.485 180.475L685.985 180.475L685.985 167.299L701.688 162.559L701.688 180.475L719.313 180.475L719.313 192.504ZM798.672 215.895C798.672 226.957 795.508 236.038 789.192 243.141C782.585 250.453 773.796 254.098 762.839 254.098C752.265 254.098 743.858 250.596 737.588 243.599C731.319 236.586 728.184 227.752 728.184 217.095C728.184 205.943 731.424 196.809 737.881 189.707C744.353 182.598 753.068 179.043 764.024 179.043C774.583 179.043 783.066 182.553 789.485 189.557C795.62 196.352 798.672 205.126 798.672 215.895ZM782.098 216.263C782.098 209.67 780.674 204.016 777.816 199.283C774.463 193.569 769.664 190.712 763.447 190.712C757.042 190.712 752.131 193.569 748.785 199.283C745.92 204.016 744.495 209.768 744.495 216.562C744.495 223.162 745.92 228.831 748.785 233.549C752.242 239.264 757.065 242.121 763.312 242.121C769.424 242.121 774.216 239.204 777.681 233.407C780.621 228.562 782.098 222.87 782.098 216.263ZM850.667 194.567C849.084 194.274 847.389 194.124 845.627 194.124C840.002 194.124 835.653 196.239 832.593 200.498C829.939 204.248 828.603 208.988 828.603 214.71L828.603 252.47L812.614 252.47L812.614 203.169C812.614 194.882 812.457 187.322 812.149 180.513L826.076 180.513L826.661 194.281L827.104 194.281C828.799 189.55 831.453 185.732 835.098 182.874C838.66 180.303 842.507 179.02 846.655 179.02C848.132 179.02 849.467 179.125 850.652 179.313L850.667 194.567ZM922.174 213.083C922.174 215.948 921.986 218.362 921.589 220.335L873.622 220.335C873.802 227.445 876.127 232.889 880.581 236.639C884.624 239.984 889.851 241.664 896.27 241.664C903.372 241.664 909.851 240.539 915.679 238.266L918.184 249.358C911.374 252.328 903.335 253.805 894.058 253.805C882.899 253.805 874.139 250.52 867.765 243.966C861.405 237.404 858.219 228.585 858.219 217.538C858.219 206.693 861.181 197.657 867.112 190.45C873.323 182.755 881.714 178.907 892.274 178.907C902.646 178.907 910.497 182.754 915.829 190.45C920.051 196.547 922.174 204.106 922.174 213.083ZM906.927 208.936C907.04 204.189 905.99 200.101 903.822 196.644C901.054 192.189 896.795 189.97 891.088 189.97C885.861 189.97 881.601 192.137 878.362 196.487C875.699 199.944 874.117 204.099 873.63 208.921L906.927 208.936Z" fill="#3a3a3a" fill-rule="nonzero" opacity="1" stroke="none" vectornator:layerName="path"/>
<path d="M371.636 116.947L363.258 116.947L358.676 102.54L342.74 102.54L338.367 116.947L330.216 116.947L346.009 67.8928L355.759 67.8928L371.636 116.947ZM357.296 96.4959L353.149 83.6867C352.714 82.3743 351.912 79.322 350.674 74.4473L350.524 74.4473C350.014 76.5547 349.287 79.6145 348.192 83.6867L344.12 96.4959L357.296 96.4959ZM411.128 81.5794L397.734 116.947L390.091 116.947L377.132 81.5794L385.577 81.5794L391.621 100.283C392.641 103.41 393.511 106.395 394.164 109.23L394.381 109.23C394.967 106.688 395.836 103.703 396.924 100.283L402.893 81.5794L411.128 81.5794ZM439.641 116.947L439.056 112.874L438.838 112.874C436.438 116.151 432.943 117.749 428.504 117.749C422.174 117.749 417.659 113.309 417.659 107.34C417.659 98.6101 425.226 94.0954 438.328 94.0954L438.328 93.4429C438.328 88.7858 435.853 86.4534 430.978 86.4534C427.483 86.4534 424.424 87.3308 421.739 89.0782L420.141 83.9111C423.418 81.8712 427.491 80.8513 432.297 80.8513C441.537 80.8513 446.202 85.726 446.202 95.4828L446.202 108.509C446.202 112.079 446.352 114.847 446.712 116.954L439.641 116.947ZM438.546 99.3307C429.81 99.3307 425.444 101.446 425.444 106.463C425.444 110.175 427.702 111.99 430.829 111.99C434.833 111.99 438.546 108.938 438.546 104.79L438.546 99.3307ZM463.707 75.7522C461.089 75.7522 459.049 73.7124 459.049 71.0201C459.049 68.3277 461.157 66.3629 463.857 66.3629C466.549 66.3629 468.731 68.3277 468.657 71.0201C468.657 73.8624 466.625 75.7522 463.707 75.7522ZM467.786 116.947L459.927 116.947L459.927 81.5794L467.786 81.5794L467.786 116.947ZM489.61 116.947L481.75 116.947L481.75 65.3504L489.61 65.3504L489.61 116.947ZM523.013 116.947L522.427 112.874L522.21 112.874C519.81 116.151 516.316 117.749 511.876 117.749C505.546 117.749 501.032 113.309 501.032 107.34C501.032 98.6101 508.598 94.0954 521.7 94.0954L521.7 93.4429C521.7 88.7858 519.225 86.4534 514.35 86.4534C510.855 86.4534 507.796 87.3308 505.111 89.0782L503.507 83.9036C506.784 81.8637 510.856 80.8438 515.663 80.8438C524.903 80.8438 529.567 85.7185 529.567 95.4753L529.567 108.502C529.567 112.072 529.725 114.839 530.07 116.946L523.013 116.946L523.013 116.947ZM521.918 99.3307C513.181 99.3307 508.816 101.446 508.816 106.463C508.816 110.175 511.073 111.99 514.2 111.99C518.205 111.99 521.918 108.938 521.918 104.79C521.918 104.79 521.918 99.3307 521.918 99.3307ZM561.411 117.749C556.394 117.749 552.688 115.635 550.288 111.487L550.131 111.487L549.681 116.947L542.984 116.947C543.201 114.112 543.276 110.902 543.276 107.415L543.276 65.3504L551.143 65.3504L551.143 86.754L551.293 86.754C553.625 82.8243 557.399 80.8594 562.573 80.8594C571.092 80.8594 577.062 88.1414 577.062 98.7607C577.062 109.74 570.432 117.749 561.411 117.749ZM559.813 87.0315C555.291 87.0315 551.151 90.9612 551.151 96.4209L551.151 102.608C551.151 107.483 554.871 111.487 559.678 111.487C565.565 111.487 569.068 106.688 569.068 99.0457C569.06 91.9137 565.415 87.0315 559.813 87.0315ZM596.538 116.947L588.686 116.947L588.686 65.3504L596.538 65.3504L596.538 116.947ZM639.323 101.153L615.73 101.153C615.887 107.85 620.311 111.63 626.866 111.63C630.361 111.63 633.563 111.045 636.398 109.957L637.62 115.417C634.275 116.872 630.346 117.599 625.763 117.599C614.694 117.599 608.147 110.61 608.147 99.7731C608.147 88.9289 614.852 80.7769 624.878 80.7769C633.901 80.7769 639.585 87.474 639.585 97.5908C639.615 98.9707 639.547 100.208 639.323 101.153ZM632.115 95.5509C632.115 90.0913 629.347 86.2365 624.323 86.2365C619.808 86.2365 616.254 90.1663 615.729 95.5509L632.115 95.5509ZM686.959 117.749C676.625 117.749 669.928 110.032 669.928 99.5557C669.928 88.6364 676.767 80.8519 687.552 80.8519C697.728 80.8519 704.583 88.2014 704.583 98.9782C704.584 110.032 697.519 117.749 686.959 117.749ZM687.259 86.5965C681.582 86.5965 677.946 91.9062 677.946 99.3307C677.946 106.613 681.658 111.922 687.185 111.922C692.712 111.922 696.416 106.245 696.416 99.1807C696.424 91.9812 692.786 86.5965 687.259 86.5965ZM746.835 116.947L738.984 116.947L738.984 96.6384C738.984 90.3838 736.583 87.249 731.852 87.249C727.195 87.249 723.985 91.2537 723.985 95.9109L723.985 116.947L716.133 116.947L716.133 91.6887C716.133 88.5614 716.05 85.2091 715.84 81.5719L722.755 81.5719L723.123 87.0315L723.34 87.0315C725.439 83.2517 729.745 80.8444 734.544 80.8444C741.961 80.8444 746.836 86.5215 746.836 95.7609L746.836 116.947C746.836 116.947 746.835 116.947 746.835 116.947ZM798.259 87.474L789.612 87.474L789.612 104.648C789.612 109.02 791.135 111.202 794.187 111.202C795.575 111.202 796.744 111.052 797.682 110.835L797.9 116.805C796.37 117.39 794.322 117.682 791.795 117.682C785.6 117.682 781.903 114.262 781.903 105.308L781.903 87.474L776.743 87.474L776.743 81.5794L781.903 81.5794L781.903 75.0998L789.612 72.7674L789.612 81.5719L798.259 81.5719L798.259 87.474ZM839.882 116.947L832.015 116.947L832.015 96.7883C832.015 90.4588 829.615 87.2565 824.883 87.2565C820.81 87.2565 817.031 90.0238 817.031 95.6259L817.031 116.947L809.164 116.947L809.164 65.3504L817.031 65.3504L817.031 86.5965L817.181 86.5965C819.656 82.7418 823.226 80.8444 827.808 80.8444C835.3 80.8444 839.882 86.664 839.882 95.9109L839.882 116.947ZM880.042 101.153L856.456 101.153C856.606 107.85 861.031 111.63 867.586 111.63C871.088 111.63 874.282 111.045 877.118 109.957L878.348 115.417C875.002 116.872 871.066 117.599 866.484 117.599C855.414 117.599 848.867 110.61 848.867 99.7731C848.867 88.9289 855.572 80.7769 865.599 80.7769C874.621 80.7769 880.305 87.474 880.305 97.5908C880.334 98.9707 880.259 100.208 880.042 101.153ZM872.834 95.5509C872.834 90.0913 870.075 86.2365 865.05 86.2365C860.528 86.2365 856.973 90.1663 856.455 95.5509L872.834 95.5509Z" fill="#3a3a3a" fill-rule="nonzero" opacity="1" stroke="none" vectornator:layerName="path"/>
<path d="M7.98186 61.4838C7.98186 33.4153 30.7359 10.6613 58.8044 10.6613L965.196 10.6613C993.264 10.6613 1016.02 33.4153 1016.02 61.4838L1016.02 258.516C1016.02 286.585 993.264 309.339 965.196 309.339L58.8044 309.339C30.7359 309.339 7.98186 286.585 7.98186 258.516L7.98186 61.4838Z" fill="none" opacity="1" stroke="#3a3a3a" stroke-linecap="butt" stroke-linejoin="round" stroke-width="10" vectornator:layerName="border"/>
</g>
</g>
</svg>
