<?xml version="1.0" standalone="no"?>
<!DOCTYPE svg PUBLIC "-//W3C//DTD SVG 20010904//EN"
 "http://www.w3.org/TR/2001/REC-SVG-20010904/DTD/svg10.dtd">
<svg version="1.0" xmlns="http://www.w3.org/2000/svg"
 width="700.000000pt" height="700.000000pt" viewBox="0 0 700.000000 700.000000"
 preserveAspectRatio="xMidYMid meet">
<metadata>
Created by potrace 1.14, written by Peter Selinger 2001-2017
</metadata>
<g transform="translate(0.000000,700.000000) scale(0.100000,-0.100000)"
fill="#000000" stroke="none">
<path d="M6296 6818 c-17 -131 -118 -323 -217 -412 -103 -92 -198 -129 -391
-150 -157 -18 -252 -37 -356 -72 -312 -103 -558 -315 -710 -612 -86 -166 -153
-396 -151 -514 l1 -53 14 65 c7 35 32 102 54 149 73 152 232 282 410 336 30 9
111 20 180 25 292 20 570 158 815 404 238 238 345 470 362 779 6 113 0 143
-11 55z"/>
<path d="M4774 6419 c-582 -44 -1117 -331 -1486 -794 -141 -177 -264 -407
-339 -635 -128 -388 -141 -784 -40 -1184 45 -176 91 -289 261 -636 236 -482
277 -625 267 -934 -4 -132 -10 -179 -31 -261 -29 -108 -94 -254 -147 -332 -82
-119 -219 -237 -343 -293 -106 -48 -185 -64 -326 -63 -373 1 -662 188 -799
517 -61 147 -98 381 -86 546 15 209 60 379 194 738 84 226 131 371 147 456 l7
38 -34 -7 c-80 -17 -272 -86 -369 -133 -777 -372 -1143 -1259 -869 -2107 40
-121 143 -330 221 -442 299 -435 780 -729 1318 -804 137 -20 404 -15 551 10
504 83 950 372 1221 791 117 180 214 423 260 651 21 102 23 141 23 379 0 302
-6 344 -81 570 -54 161 -123 310 -191 411 -160 237 -346 745 -424 1161 -30
159 -37 458 -15 625 91 694 515 1291 1135 1602 64 32 159 73 211 92 l95 34
-60 6 c-77 9 -145 8 -271 -2z"/>
<path d="M3202 2388 c-5 -7 -28 -67 -50 -133 -55 -169 -73 -199 -173 -297
-109 -107 -123 -145 -65 -183 21 -14 31 -15 60 -5 142 46 252 254 263 495 5
90 3 113 -9 123 -12 10 -17 10 -26 0z"/>
</g>
</svg>
